<svg xmlns="http://www.w3.org/2000/svg" viewBox="0 0 70.87 70.87"><g id="Layer_2" data-name="Layer 2"><g id="Layer_1-2" data-name="Layer 1"><path d="M26.38,23.08,23,26.41,4.92,8.25l-.19,0V9c0,4.61,0,9.22,0,13.83,0,.6-.15.81-.76.79-1.12-.05-2.24,0-3.36,0C.17,23.63,0,23.47,0,23Q0,11.8,0,.61C0,.14.2,0,.64,0H23c.49,0,.66.16.65.64,0,1.14,0,2.29,0,3.43,0,.52-.17.66-.68.66-4.61,0-9.23,0-13.84,0H8.34l-.11.17Z"/><path d="M62.7,66.15,44.41,47.9l3.48-3.38,18,18.11.2-.05v-.73c0-4.61,0-9.22,0-13.83,0-.61.16-.81.77-.78,1.11,0,2.24,0,3.35,0,.46,0,.61.16.61.62q0,11.16,0,22.33c0,.48-.14.67-.64.67q-11.16,0-22.33,0c-.49,0-.65-.17-.64-.65,0-1.14,0-2.29,0-3.43,0-.52.18-.66.68-.66q6.93,0,13.84,0Z"/><path d="M65.93,8.23,47.83,26.42,44.5,23.07,62.64,4.91l-.08-.18h-.75c-4.61,0-9.22,0-13.84,0-.58,0-.76-.17-.74-.74,0-1.1.05-2.2,0-3.29,0-.57.2-.71.73-.7q11.1,0,22.2,0c.58,0,.7.22.7.74,0,4.56,0,9.13,0,13.7,0,2.81,0,5.62,0,8.43,0,.57-.16.78-.74.76-1.1,0-2.2,0-3.3,0-.55,0-.7-.17-.7-.71,0-4.62,0-9.23,0-13.84V8.33Z"/><path d="M4.89,62.62,23,44.43l3.34,3.39c-6,6-12.06,12.08-18.11,18.14l.06.19h.75c4.61,0,9.22,0,13.83,0,.58,0,.78.15.76.74-.05,1.12,0,2.24,0,3.36,0,.48-.17.64-.66.64q-11.16,0-22.33,0c-.5,0-.64-.18-.64-.66Q0,59.08,0,48c0-.51.14-.71.67-.7,1.12,0,2.24,0,3.36,0,.61,0,.71.23.71.78,0,4.59,0,9.17,0,13.76v.77Z"/></g></g></svg>