<svg id="Capa_1" enable-background="new 0 0 512 512" height="512" viewBox="0 0 512 512" width="512" xmlns="http://www.w3.org/2000/svg"><g><path d="m504.485 315.609c4.151 0 7.515-3.364 7.515-7.515v-160.339c0-20.718-16.855-37.573-37.573-37.573h-6.019v-102.667c0-4.151-3.364-7.515-7.515-7.515h-245.036c-4.151 0-7.515 3.364-7.515 7.515v102.667h-28.562v-3.303c0-15.193-12.36-27.554-27.554-27.554h-63.343c-15.193 0-27.554 12.361-27.554 27.554v3.303h-23.756c-20.718 0-37.573 16.855-37.573 37.573v214.462c0 4.151 3.364 7.515 7.515 7.515s7.515-3.364 7.515-7.515v-214.462c0-12.43 10.114-22.544 22.544-22.544h23.755v340.902h-23.756c-12.43 0-22.544-10.113-22.544-22.544v-51.294c0-4.151-3.364-7.515-7.515-7.515s-7.514 3.365-7.514 7.516v51.294c0 20.718 16.855 37.573 37.573 37.573h23.755v3.303c.001 15.193 12.362 27.554 27.555 27.554h63.343c15.194 0 27.554-12.361 27.554-27.554v-3.303h294.647c20.718 0 37.573-16.855 37.573-37.573v-105.417c0-4.151-3.364-7.515-7.515-7.515s-7.515 3.364-7.515 7.515v105.417c0 12.431-10.114 22.544-22.544 22.544h-294.646v-211.128c0-4.151-3.364-7.515-7.515-7.515s-7.515 3.364-7.515 7.515v229.46c0 6.906-5.618 12.524-12.525 12.524h-63.342c-6.906 0-12.524-5.618-12.524-12.524v-377.567c0-6.906 5.618-12.524 12.524-12.524h63.343c6.906 0 12.525 5.618 12.525 12.524v118.049c0 4.151 3.364 7.515 7.515 7.515s7.515-3.364 7.515-7.515v-99.716h294.647c12.43 0 22.544 10.114 22.544 22.544v160.339c-.001 4.15 3.363 7.514 7.513 7.514zm-281.113-300.58h230.007v95.153h-230.007z"/><path d="m431.716 217.791v-44.259c0-9.668-7.866-17.534-17.534-17.534h-157.91c-9.668 0-17.534 7.866-17.534 17.534v44.259c0 9.668 7.866 17.534 17.534 17.534h157.91c9.668 0 17.534-7.866 17.534-17.534zm-15.029 0c0 1.382-1.123 2.505-2.505 2.505h-157.91c-1.382 0-2.505-1.123-2.505-2.505v-44.259c0-1.382 1.123-2.505 2.505-2.505h157.91c1.382 0 2.505 1.123 2.505 2.505z"/><path d="m283.038 273.486h-29.187c-4.151 0-7.515 3.364-7.515 7.515s3.364 7.515 7.515 7.515h29.187c4.151 0 7.515-3.364 7.515-7.515s-3.364-7.515-7.515-7.515z"/><path d="m349.821 273.528h-29.188c-4.151 0-7.515 3.364-7.515 7.515s3.364 7.515 7.515 7.515h29.188c4.151 0 7.515-3.364 7.515-7.515s-3.364-7.515-7.515-7.515z"/><path d="m416.603 273.486h-29.187c-4.151 0-7.515 3.364-7.515 7.515s3.364 7.515 7.515 7.515h29.187c4.151 0 7.515-3.364 7.515-7.515s-3.365-7.515-7.515-7.515z"/><path d="m283.038 315.609h-29.187c-4.151 0-7.515 3.364-7.515 7.515s3.364 7.515 7.515 7.515h29.187c4.151 0 7.515-3.364 7.515-7.515s-3.364-7.515-7.515-7.515z"/><path d="m349.821 315.651h-29.188c-4.151 0-7.515 3.364-7.515 7.515s3.364 7.515 7.515 7.515h29.188c4.151 0 7.515-3.364 7.515-7.515s-3.364-7.515-7.515-7.515z"/><path d="m416.603 315.609h-29.187c-4.151 0-7.515 3.364-7.515 7.515s3.364 7.515 7.515 7.515h29.187c4.151 0 7.515-3.364 7.515-7.515s-3.365-7.515-7.515-7.515z"/><path d="m283.038 357.732h-29.187c-4.151 0-7.515 3.364-7.515 7.515s3.364 7.515 7.515 7.515h29.187c4.151 0 7.515-3.364 7.515-7.515s-3.364-7.515-7.515-7.515z"/><path d="m349.821 357.773h-29.188c-4.151 0-7.515 3.364-7.515 7.515s3.364 7.515 7.515 7.515h29.188c4.151 0 7.515-3.364 7.515-7.515s-3.364-7.515-7.515-7.515z"/><path d="m416.603 357.732h-29.187c-4.151 0-7.515 3.364-7.515 7.515s3.364 7.515 7.515 7.515h29.187c4.151 0 7.515-3.364 7.515-7.515-.001-4.151-3.365-7.515-7.515-7.515z"/><path d="m283.038 399.854h-29.187c-4.151 0-7.515 3.364-7.515 7.515s3.364 7.515 7.515 7.515h29.187c4.151 0 7.515-3.364 7.515-7.515s-3.364-7.515-7.515-7.515z"/><path d="m349.821 399.895h-29.188c-4.151 0-7.515 3.364-7.515 7.515s3.364 7.515 7.515 7.515h29.188c4.151 0 7.515-3.364 7.515-7.515s-3.364-7.515-7.515-7.515z"/><path d="m416.603 399.854h-29.187c-4.151 0-7.515 3.364-7.515 7.515s3.364 7.515 7.515 7.515h29.187c4.151 0 7.515-3.364 7.515-7.515s-3.365-7.515-7.515-7.515z"/></g></svg>