<?xml version="1.0" encoding="utf-8"?>
<!-- Generator: Adobe Illustrator 24.2.1, SVG Export Plug-In . SVG Version: 6.00 Build 0)  -->
<svg version="1.1" id="Capa_1" xmlns="http://www.w3.org/2000/svg" xmlns:xlink="http://www.w3.org/1999/xlink" x="0px" y="0px"
	 viewBox="0 0 512 512" style="enable-background:new 0 0 512 512;" xml:space="preserve">
<g>
	<g>
		<path d="M284,393c-5.5,0-10,4.5-10,10v32c0,27.6,22.4,50,50,50h138c27.6,0,50-22.4,50-50V315c0-27.6-22.4-50-50-50h-64.7
			c2.3-74.7,30.6-113.5,86.5-118.6c5.2-0.5,9.1-4.8,9.1-10V37c0-2.8-1.1-5.4-3.1-7.3c-1.9-1.8-4.3-2.7-6.9-2.7c-0.2,0-0.4,0-0.6,0
			C413.4,30.9,360.8,54.6,326,97.5c-34.5,42.4-52,104.5-52,184.3v35.8c0,5.5,4.5,10,10,10s10-4.5,10-10v-35.8
			c0-146.6,58.5-223.3,178.9-234.1v79.8c-30.4,4.7-53.9,18.9-70,42.2c-17,24.7-25.7,60.1-25.7,105.3c0,5.5,4.5,10,10,10H462
			c16.5,0,30,13.5,30,30v120c0,16.5-13.5,30-30,30H324c-16.5,0-30-13.5-30-30v-32C294,397.5,289.5,393,284,393z"/>
	</g>
</g>
<g>
	<g>
		<path d="M50,485h138c27.6,0,50-22.4,50-50V315c0-27.6-22.4-50-50-50h-64.7c2.3-74.7,30.6-113.5,86.5-118.6c5.1-0.5,9.1-4.8,9.1-10
			V37c0-2.8-1.1-5.4-3.1-7.3c-1.9-1.8-4.3-2.7-6.9-2.7c-0.2,0-0.4,0-0.6,0C139.4,30.9,86.8,54.6,52,97.5C17.5,139.9,0,202,0,281.8
			V435C0,462.6,22.4,485,50,485z M20,281.8c0-146.6,58.5-223.3,178.9-234v79.8c-30.4,4.7-53.9,18.9-70,42.2
			c-17,24.7-25.7,60.1-25.7,105.3c0,5.5,4.5,10,10,10H188c16.5,0,30,13.5,30,30v120c0,16.5-13.5,30-30,30H68v-74c0-5.5-4.5-10-10-10
			s-10,4.5-10,10v74c-15.6-1-28-14.1-28-29.9V281.8z"/>
	</g>
</g>
<g>
	<g>
		<path d="M454,145.8c-5.5,0-10,4.5-10,10s4.5,10,10,10s10-4.5,10-10v-0.1C464,150.2,459.5,145.8,454,145.8z"/>
	</g>
</g>
<g>
	<g>
		<path d="M228,141.7c-5.5,0-10,4.5-10,10v0.2c0,5.5,4.5,10,10,10s10-4.5,10-10v-0.2C238,146.1,233.5,141.7,228,141.7z"/>
	</g>
</g>
</svg>
